<svg width="57" height="57" viewBox="0 0 57 57" fill="none" xmlns="http://www.w3.org/2000/svg">
<path d="M54.6345 37.0215C54.9448 37.0218 55.2522 36.961 55.539 36.8425C55.8258 36.7241 56.0865 36.5503 56.3062 36.3311C56.5258 36.1118 56.7002 35.8515 56.8192 35.5649C56.9383 35.2783 56.9997 34.9711 57 34.6608C57.0003 34.3504 56.9395 34.0431 56.821 33.7563C56.7026 33.4694 56.5288 33.2087 56.3095 32.9891C56.0903 32.7694 55.83 32.5951 55.5434 32.4761C55.2568 32.357 54.9496 32.2956 54.6393 32.2953C54.0125 32.2946 53.4112 32.543 52.9676 32.9857C52.524 33.4285 52.2744 34.0293 52.2738 34.656C52.2731 35.2828 52.5215 35.8841 52.9642 36.3277C53.4069 36.7713 54.0078 37.0209 54.6345 37.0215ZM52.269 28.2221H50.2503C48.9535 28.2221 48.2553 29.1959 48.2553 30.8156V36.6724H44.4315V28.2221H42.807C41.5079 28.2221 40.812 29.1959 40.812 30.8156V36.6724H36.9883V25.0966H40.812V26.8541C41.439 25.4909 42.2988 25.0966 43.5741 25.0966H48.2576V26.8541C48.8846 25.4909 49.742 25.0966 51.0174 25.0966H52.269V28.2221ZM36.1523 31.787H28.1746C28.3836 33.0838 29.1959 33.8248 30.5639 33.8248C31.5851 33.8248 32.3024 33.4091 32.5351 32.6681L35.9195 33.6181C35.0859 35.6321 33.022 36.8576 30.5639 36.8576C26.4124 36.8576 24.51 33.6395 24.51 30.8845C24.51 28.177 26.1796 24.9351 30.3288 24.9351C34.7368 24.9351 36.1974 28.2221 36.1974 30.6541C36.1974 31.1861 36.1736 31.5329 36.1499 31.787H36.1523ZM32.4425 29.5426C32.3475 28.5451 31.6302 27.6189 30.3311 27.6189C29.1246 27.6189 28.4074 28.1533 28.1746 29.5426H32.4425ZM17.8315 36.67H21.1945L25.3911 25.0943H21.5436L19.5011 31.8321L17.4159 25.0943H13.585L17.8315 36.67ZM2.1565 36.67H5.96125V28.2198H9.58075V36.67H13.3594V25.0943H5.96125V24.377C5.96125 23.5885 6.51937 23.104 7.4005 23.104H9.58075V19.9785H6.76875C4.009 19.9785 2.15412 21.6695 2.15412 24.1466V25.0966H0V28.2221H2.1565V36.6724V36.67Z" fill="#F5F6FA"/>
</svg>
