<svg width="22" height="21" viewBox="0 0 22 21" fill="none" xmlns="http://www.w3.org/2000/svg">
<g clip-path="url(#clip0_11_452)">
<path d="M4.9987 6.93954V20.7766H0.272135V6.93954H4.9987ZM5.29948 2.66693C5.30903 3.34645 5.06793 3.91427 4.57617 4.37039C4.08442 4.8265 3.4375 5.05456 2.63542 5.05456H2.60677C1.82378 5.05456 1.19358 4.8265 0.716146 4.37039C0.238715 3.91427 0 3.34645 0 2.66693C0 1.9781 0.245877 1.40795 0.73763 0.956491C1.22938 0.505028 1.87153 0.279297 2.66406 0.279297C3.4566 0.279297 4.09158 0.505028 4.56901 0.956491C5.04644 1.40795 5.28993 1.9781 5.29948 2.66693ZM22 12.8458V20.7766H17.2878V13.3764C17.2878 12.399 17.0944 11.6334 16.7077 11.0795C16.321 10.5256 15.717 10.2487 14.8958 10.2487C14.2943 10.2487 13.7906 10.4093 13.3848 10.7304C12.9789 11.0516 12.6758 11.4495 12.4753 11.9242C12.3702 12.2035 12.3177 12.5805 12.3177 13.0552V20.7766H7.60547C7.62457 17.0625 7.63411 14.0512 7.63411 11.7427C7.63411 9.43422 7.62934 8.05656 7.61979 7.60975L7.60547 6.93954H12.3177V8.95017H12.2891C12.48 8.6523 12.6758 8.39166 12.8763 8.16826C13.0768 7.94486 13.3466 7.70283 13.6855 7.4422C14.0245 7.18156 14.4399 6.9791 14.9316 6.83482C15.4234 6.69053 15.9701 6.61839 16.5716 6.61839C18.2044 6.61839 19.5174 7.14665 20.5104 8.20317C21.5035 9.25968 22 10.8072 22 12.8458Z" fill="#F5F6FA"/>
</g>
<defs>
<clipPath id="clip0_11_452">
<rect width="22" height="21" fill="white"/>
</clipPath>
</defs>
</svg>
